<svg xmlns="http://www.w3.org/2000/svg" xmlns:xlink="http://www.w3.org/1999/xlink" width="15" height="15" viewBox="0 0 15 15">
  <defs>
    <clipPath id="clip-path">
      <rect id="Rectangle_26" data-name="Rectangle 26" width="15" height="15" transform="translate(85 1999)" fill="#ff7302"/>
    </clipPath>
  </defs>
  <g id="check" transform="translate(-85 -1999)" clip-path="url(#clip-path)">
    <g id="check-2" data-name="check" transform="translate(85 1999)">
      <g id="Group_23" data-name="Group 23">
        <path id="Path_1" data-name="Path 1" d="M12.519,8.122a.239.239,0,0,0-.108-.027.284.284,0,0,0-.207.09l-.577.577a.271.271,0,0,0-.081.2v2.291A1.447,1.447,0,0,1,10.1,12.7H2.6a1.39,1.39,0,0,1-1.019-.424,1.39,1.39,0,0,1-.424-1.019v-7.5a1.39,1.39,0,0,1,.424-1.019A1.39,1.39,0,0,1,2.6,2.3h7.5a1.6,1.6,0,0,1,.406.054.29.29,0,0,0,.081.018.285.285,0,0,0,.208-.09l.442-.442a.28.28,0,0,0,.081-.261.273.273,0,0,0-.162-.207A2.483,2.483,0,0,0,10.1,1.15H2.6a2.5,2.5,0,0,0-1.836.762A2.5,2.5,0,0,0,0,3.748v7.5a2.5,2.5,0,0,0,.762,1.835A2.5,2.5,0,0,0,2.6,13.85h7.5a2.6,2.6,0,0,0,2.6-2.6V8.384A.262.262,0,0,0,12.519,8.122Z" fill="#ff7302"/>
        <path id="Path_2" data-name="Path 2" d="M14.784,2.945l-.992-.992a.719.719,0,0,0-1.028,0L6.927,7.788,4.555,5.416a.719.719,0,0,0-1.028,0l-.992.992a.719.719,0,0,0,0,1.028l3.878,3.878a.719.719,0,0,0,1.028,0l7.342-7.342a.719.719,0,0,0,0-1.028Z" fill="#ff7302"/>
      </g>
    </g>
  </g>
</svg>
