<svg xmlns="http://www.w3.org/2000/svg" xmlns:xlink="http://www.w3.org/1999/xlink" width="12" height="12" viewBox="0 0 12 12">
  <defs>
    <clipPath id="clip-path">
      <rect id="Rectangle_9" data-name="Rectangle 9" width="12" height="12" transform="translate(118 135)" fill="#ff923a"/>
    </clipPath>
  </defs>
  <g id="Location-icon" transform="translate(-118 -135)" clip-path="url(#clip-path)">
    <path id="pin001_-_E017" data-name="pin001 - E017" d="M-3.554-15.624l3.293-5.7a3.882,3.882,0,0,0,.513-1.894,3.806,3.806,0,0,0-3.806-3.806A3.806,3.806,0,0,0-7.36-23.218a3.882,3.882,0,0,0,.513,1.894Zm0-6.039A1.553,1.553,0,0,1-5.11-23.218a1.555,1.555,0,0,1,1.555-1.564,1.568,1.568,0,0,1,1.564,1.564A1.561,1.561,0,0,1-3.554-21.663Z" transform="translate(127.76 162.624)" fill="#ff923a"/>
  </g>
</svg>
