<svg xmlns="http://www.w3.org/2000/svg" xmlns:xlink="http://www.w3.org/1999/xlink" width="32" height="32" viewBox="0 0 32 32">
  <defs>
    <clipPath id="clip-path">
      <rect id="Rectangle_22" data-name="Rectangle 22" width="18" height="18" transform="translate(524 1374)" fill="#fff"/>
    </clipPath>
  </defs>
  <g id="Phone-btn" transform="translate(-370 -1327)">
    <g id="Ellipse_12" data-name="Ellipse 12" transform="translate(370 1327)" fill="none" stroke="#ff7302" stroke-width="1">
      <circle cx="16" cy="16" r="16" stroke="none"/>
      <circle cx="16" cy="16" r="15.5" fill="none"/>
    </g>
    <g id="phone-icon" transform="translate(-147 -40)" clip-path="url(#clip-path)">
      <path id="phone" d="M-4.57-38.6c-.594.278-1.265.594-1.859.86-.544-1-1.062-2.011-1.556-3.074-.417-.911-.8-1.771-1.126-2.593.582-.278,1.278-.594,1.9-.885l-1.214-4.5a2.658,2.658,0,0,0-2.087.063,2.728,2.728,0,0,0-1.53,2.8l.025.139a22.185,22.185,0,0,0,1.885,6.324,22.962,22.962,0,0,0,3.63,5.527l.089.089a2.718,2.718,0,0,0,3.124.632,2.664,2.664,0,0,0,1.4-1.556Z" transform="translate(540.068 1423.974)" fill="#ff7302"/>
    </g>
  </g>
</svg>
